<svg xmlns="http://www.w3.org/2000/svg" width="256" height="256" viewBox="0 0 100 100"><rect width="100" height="100" rx="20" fill="#4b95e6"></rect><path fill="#fff" d="M21.05 77.69L5.93 77.69L5.93 20.98L18.95 20.98Q22.80 20.98 25.64 21.82Q28.47 22.66 30.36 24.41Q32.25 26.16 33.16 28.86Q34.07 31.55 34.07 35.20L34.07 35.20Q34.07 38.70 33.20 41.25Q32.32 43.80 30.54 45.27Q28.75 46.75 25.95 47.16L25.95 47.16Q29.38 47.94 31.48 49.79Q33.58 51.64 34.60 54.55Q35.61 57.45 35.61 61.52L35.61 61.52Q35.61 65.16 34.77 68.17Q33.93 71.17 32.15 73.28Q30.36 75.38 27.60 76.53Q24.83 77.69 21.05 77.69L21.05 77.69ZM13.84 50.66L13.84 72.02L19.16 72.02Q24.48 72.02 26.27 69.53Q28.05 67.05 28.05 61.52L28.05 61.52Q28.05 57.95 27.11 55.53Q26.16 53.11 24.10 51.89Q22.03 50.66 18.53 50.66L18.53 50.66L13.84 50.66ZM13.84 26.86L13.84 44.64L18.53 44.64Q21.89 44.64 23.78 43.70Q25.67 42.75 26.44 40.66Q27.21 38.55 27.21 35.20L27.21 35.20Q27.21 31.27 26.02 29.52Q24.83 27.77 22.31 27.32Q19.79 26.86 15.73 26.86L15.73 26.86L13.84 26.86ZM42.48 79.02L38.70 79.02L38.70 73.34Q41.28 73.34 42.89 73.00Q44.50 72.64 45.38 71.73Q46.25 70.83 46.60 69.11Q46.95 67.39 46.95 64.73L46.95 64.73L46.95 20.98L54.80 20.98L54.80 64.88Q54.80 69.78 53.74 72.89Q52.70 76.00 50.03 77.51Q47.38 79.02 42.48 79.02L42.48 79.02ZM71.59 77.69L63.69 77.69L63.69 20.98L71.59 20.98L71.59 45.48L86.16 45.48L86.16 20.98L94.06 20.98L94.06 77.69L86.16 77.69L86.16 51.16L71.59 51.16L71.59 77.69Z"></path></svg>